#!OML:ASF E:\Steps\Project 1\Capture day 1\Session 2\Subject.ASF
:FULLY-SPECIFIED
:DEGREES
441
root 11.2065 16.2238 12.7332 29.6078 -173.031 361.068
lowerback -9.87504 -1.96765 -7.36795
upperback 0.938905 -1.75312 -1.60048
thorax 6.72357 -1.14686 2.17227
lowerneck 1.08016 0.317023 -4.07243
upperneck 8.94197 -0.463921 6.83616
head 2.72188 -0.352951 2.94934
rclavicle 1.03368e-014 -3.18055e-015
rhumerus -25.5488 -14.6364 -88.1228
rradius 23.821
rwrist 5.49557
rhand -13.9252 -52.6847
rfingers 7.12502
rthumb 12.2012 -82.3089
lclavicle 1.03368e-014 -3.18055e-015
lhumerus -25.0022 -7.18706 84.326
lradius 22.9748
lwrist 0.427842
lhand -22.4372 -10.949
lfingers 7.12502
lthumb 3.98659 18.9935
rfemur -49.9689 17.0045 6.42203
rtibia 27.1409
rfoot -16.881 -6.45378
rtoes -34.22
lfemur -45.8617 -11.9928 -13.5098
ltibia 30.5308
lfoot -13.7479 9.23394
ltoes -36.0157
442
root 11.179 16.2285 12.7305 29.502 -173.142 361.223
lowerback -9.80372 -1.99261 -7.20174
upperback 1.016 -1.80582 -1.54702
thorax 6.76653 -1.16775 2.12796
lowerneck 0.767102 0.316676 -4.19821
upperneck 8.95862 -0.44278 6.85872
head 2.78561 -0.33535 2.98447
rclavicle -3.18055e-014 -9.54166e-015
rhumerus -25.3558 -14.0159 -88.2465
rradius 23.9134
rwrist 5.71888
rhand -13.4744 -53.5665
rfingers 7.12502
rthumb 12.6358 -83.1643
lclavicle -3.18055e-014 -9.54166e-015
lhumerus -24.8125 -6.8852 84.3707
lradius 23.029
lwrist 0.306172
lhand -22.8452 -11.404
lfingers 7.12502
lthumb 3.59258 18.5455
rfemur -49.7484 16.8171 6.89602
rtibia 27.0839
rfoot -16.7885 -6.55647
rtoes -33.6598
lfemur -45.647 -11.9646 -13.4781
ltibia 30.3506
lfoot -13.6846 9.24358
ltoes -35.0863
443
root 11.1491 16.2311 12.731 29.4871 -173.382 361.37
lowerback -9.92024 -1.86931 -7.09874
upperback 0.856229 -1.65286 -1.62274
thorax 6.64129 -1.08347 2.01583
lowerneck 1.22787 0.33727 -4.09597
upperneck 8.93485 -0.446953 6.83719
head 2.69133 -0.35069 2.95294
rclavicle 1.19271e-014 2.38542e-014
rhumerus -25.7565 -14.1224 -88.2145
rradius 24.0425
rwrist 6.17313
rhand -13.4478 -53.7011
rfingers 7.12502
rthumb 12.6615 -83.2973
lclavicle 1.19271e-014 2.38542e-014
lhumerus -25.2173 -7.40901 84.5244
lradius 23.2864
lwrist 0.489768
lhand -23.2464 -11.9506
lfingers 7.12502
lthumb 3.20519 18.005
rfemur -49.6688 16.53 7.36138
rtibia 27.0929
rfoot -16.7206 -6.54423
rtoes -33.4926
lfemur -45.5152 -11.8525 -13.4989
ltibia 30.163
lfoot -13.6918 9.38676
ltoes -35.0994
444
root 11.1255 16.2353 12.7365 29.4927 -173.583 361.437
lowerback -10.0623 -1.83113 -7.21417
upperback 0.903214 -1.57273 -1.56073
thorax 6.77095 -1.05272 2.15392
lowerneck 1.30858 0.358779 -4.14113
upperneck 8.92482 -0.421491 6.83748
head 2.67185 -0.341891 2.96109
rclavicle -7.95139e-016 1.27222e-014
rhumerus -25.5779 -13.9864 -88.1693
rradius 23.9893
rwrist 6.42847
rhand -14.0919 -52.946
rfingers 7.12502
rthumb 12.0404 -82.5796
lclavicle -7.95139e-016 1.27222e-014
lhumerus -25.0081 -7.1956 84.6715
lradius 23.3388
lwrist 0.444296
lhand -23.3351 -12.4388
lfingers 7.12502
lthumb 3.11953 17.5181
rfemur -49.6076 16.2926 7.7005
rtibia 27.1347
rfoot -16.6783 -6.76863
rtoes -34.2937
lfemur -45.4324 -11.6452 -13.6252
ltibia 30.0191
lfoot -13.6621 9.42256
ltoes -35.4037
445
root 11.1051 16.2403 12.7402 29.4835 -173.757 361.458
lowerback -10.1374 -1.83427 -7.34781
upperback 1.03506 -1.54551 -1.49217
thorax 6.95931 -1.05177 2.30066
lowerneck 1.09582 0.361596 -4.22024
upperneck 8.92856 -0.401533 6.8489
head 2.71196 -0.326613 2.98234
rclavicle 6.36111e-015 7.63333e-014
rhumerus -25.2592 -13.3968 -88.2321
rradius 24.0704
rwrist 6.23419
rhand -14.284 -52.6545
rfingers 7.12502
rthumb 11.8552 -82.2989
lclavicle 6.36111e-015 7.63333e-014
lhumerus -24.5796 -6.90423 84.7832
lradius 23.3399
lwrist 0.540413
lhand -23.5691 -12.5127
lfingers 7.12502
lthumb 2.89349 17.4474
rfemur -49.4961 16.1988 7.89895
rtibia 27.0563
rfoot -16.5732 -7.19008
rtoes -35.0946
lfemur -45.3021 -11.5271 -13.7568
ltibia 29.7964
lfoot -13.484 9.55098
ltoes -36.107
446
root 11.0825 16.2431 12.7383 29.4291 -173.927 361.549
lowerback -10.167 -1.87087 -7.29418
upperback 1.18075 -1.58783 -1.47139
thorax 7.13597 -1.07734 2.28153
lowerneck 0.69438 0.358181 -4.24231
upperneck 8.9554 -0.379249 6.8393
head 2.79408 -0.303439 2.98791
rclavicle -7.95139e-015 -7.15625e-014
rhumerus -24.8777 -12.8502 -88.4462
rradius 24.1079
rwrist 6.22215
rhand -13.9458 -53.3569
rfingers 7.12502
rthumb 12.1814 -82.9822
lclavicle -7.95139e-015 -7.15625e-014
lhumerus -24.2345 -6.66502 84.7516
lradius 23.4424
lwrist 0.789761
lhand -23.5797 -12.1463
lfingers 7.12502
lthumb 2.8833 17.814
rfemur -49.2954 16.0959 8.21144
rtibia 26.832
rfoot -16.4278 -7.50501
rtoes -34.7464
lfemur -45.0803 -11.4974 -13.7827
ltibia 29.5004
lfoot -13.3049 9.7759
ltoes -36.794
447
root 11.0556 16.2493 12.7389 29.2641 -173.898 361.705
lowerback -10.1197 -1.7663 -7.04388
upperback 1.04641 -1.48879 -1.58405
thorax 6.94351 -1.01097 2.04339
lowerneck 1.27252 0.355796 -4.0337
upperneck 8.91168 -0.423723 6.81719
head 2.67299 -0.33947 2.93389
rclavicle 7.95139e-016 7.95139e-015
rhumerus -25.2537 -13.136 -88.539
rradius 24.1531
rwrist 6.40977
rhand -13.8047 -54.0469
rfingers 7.12502
rthumb 12.3174 -83.6641
lclavicle 7.95139e-016 7.95139e-015
lhumerus -24.5788 -7.10777 84.7613
lradius 23.6045
lwrist 1.02205
lhand -23.2636 -11.8275
lfingers 7.12502
lthumb 3.18858 18.1284
rfemur -48.7879 15.8769 8.72932
rtibia 26.4016
rfoot -16.3183 -7.75588
rtoes -33.5189
lfemur -44.8396 -11.4928 -13.7704
ltibia 29.4374
lfoot -13.3686 9.70446
ltoes -36.3464
448
root 11.0268 16.2609 12.7437 29.2009 -173.903 361.662
lowerback -10.0438 -1.76909 -7.03871
upperback 1.10121 -1.49578 -1.57211
thorax 6.95992 -1.01516 2.05278
lowerneck 1.21638 0.356539 -4.10162
upperneck 8.91053 -0.418403 6.83689
head 2.68346 -0.336272 2.95409
rclavicle -2.46493e-014 -1.90833e-014
rhumerus -25.1481 -13.0489 -88.5142
rradius 24.2646
rwrist 6.3914
rhand -13.885 -54.0338
rfingers 7.12502
rthumb 12.24 -83.6556
lclavicle -2.46493e-014 -1.90833e-014
lhumerus -24.3585 -6.96009 84.9404
lradius 23.6281
lwrist 0.967984
lhand -23.3303 -11.7948
lfingers 7.12502
lthumb 3.12412 18.162
rfemur -48.3741 15.6132 8.93133
rtibia 26.0603
rfoot -16.3448 -7.98369
rtoes -32.9834
lfemur -44.6986 -11.5327 -13.986
ltibia 29.4182
lfoot -13.4984 9.52954
ltoes -35.8239
449
root 11.004 16.2685 12.7432 29.301 -174.137 361.526
lowerback -10.1567 -1.7836 -7.30623
upperback 1.0755 -1.4773 -1.5446
thorax 7.00424 -1.01867 2.23182
lowerneck 1.1351 0.379901 -4.17831
upperneck 8.91663 -0.379382 6.83315
head 2.69867 -0.316467 2.96876
rclavicle -1.59028e-015 -2.54444e-014
rhumerus -25.266 -12.8871 -88.3711
rradius 24.4081
rwrist 6.54193
rhand -14.1457 -53.5821
rfingers 7.12502
rthumb 11.9886 -83.2187
lclavicle -1.59028e-015 -2.54444e-014
lhumerus -24.2588 -6.72889 85.1572
lradius 23.7342
lwrist 0.987424
lhand -23.6056 -11.7583
lfingers 7.12502
lthumb 2.85823 18.2023
rfemur -48.3639 15.5105 8.83709
rtibia 25.9689
rfoot -16.4285 -8.32099
rtoes -33.8142
lfemur -44.6084 -11.4891 -14.2794
ltibia 29.1819
lfoot -13.4651 9.55815
ltoes -35.9952
450
root 10.9889 16.2713 12.738 29.3249 -174.394 361.528
lowerback -10.3585 -1.76843 -7.47305
upperback 1.09215 -1.41822 -1.54374
thorax 7.13679 -1.00134 2.33024
lowerneck 1.1316 0.403614 -4.20619
upperneck 8.90585 -0.344875 6.82744
head 2.69364 -0.300032 2.97249
rclavicle -6.36111e-015 3.49861e-014
rhumerus -25.3036 -12.8611 -88.3422
rradius 24.4688
rwrist 6.76645
rhand -14.2015 -54.0083
rfingers 7.12502
rthumb 11.9348 -83.6481
lclavicle -6.36111e-015 3.49861e-014
lhumerus -24.1153 -6.65198 85.2267
lradius 23.8065
lwrist 1.19046
lhand -23.4859 -11.65
lfingers 7.12502
lthumb 2.97387 18.309
rfemur -48.3441 15.4703 8.98046
rtibia 25.912
rfoot -16.3794 -8.75788
rtoes -35.4121
lfemur -44.4606 -11.3177 -14.4136
ltibia 28.942
lfoot -13.3861 9.57858
ltoes -35.9134
451
root 10.979 16.2755 12.7356 29.2139 -174.555 361.586
lowerback -10.5202 -1.7106 -7.5923
upperback 1.24047 -1.29981 -1.56153
thorax 7.3805 -0.958234 2.39114
lowerneck 1.20896 0.402141 -4.19138
upperneck 8.87639 -0.350961 6.84475
head 2.66989 -0.304301 2.97439
rclavicle 9.54166e-015 -3.65764e-014
rhumerus -24.9766 -13.2118 -88.3687
rradius 24.3062
rwrist 7.00962
rhand -14.4233 -54.118
rfingers 7.12502
rthumb 11.7209 -83.7701
lclavicle 9.54166e-015 -3.65764e-014
lhumerus -23.7027 -6.6667 85.2439
lradius 23.6845
lwrist 1.25935
lhand -23.289 -11.5425
lfingers 7.12502
lthumb 3.16396 18.4138
rfemur -48.1082 15.4425 9.24626
rtibia 25.8049
rfoot -16.3228 -9.09996
rtoes -35.9858
lfemur -44.2374 -11.129 -14.4636
ltibia 28.7611
lfoot -13.3638 9.47431
ltoes -35.3167
452
root 10.9645 16.2787 12.7391 29.2653 -174.802 361.621
lowerback -10.7907 -1.63589 -7.71831
upperback 1.32905 -1.1513 -1.59353
thorax 7.6189 -0.900404 2.44556
lowerneck 1.30218 0.379029 -4.13718
upperneck 8.85719 -0.389583 6.85972
head 2.64841 -0.324521 2.96754
rclavicle -5.56597e-015 -2.54444e-014
rhumerus -24.5703 -13.7741 -88.3562
rradius 23.9305
rwrist 7.51899
rhand -15.4086 -52.6757
rfingers 7.12502
rthumb 10.7706 -82.3795
lclavicle -5.56597e-015 -2.54444e-014
lhumerus -23.3507 -6.65236 85.302
lradius 23.638
lwrist 1.29524
lhand -23.0543 -11.5287
lfingers 7.12502
lthumb 3.39066 18.4241
rfemur -48.081 15.4336 9.31593
rtibia 25.6215
rfoot -16.2144 -9.24668
rtoes -35.2971
lfemur -44.1943 -10.9219 -14.5421
ltibia 28.563
lfoot -13.3195 9.45391
ltoes -34.6264
453
root 10.9442 16.2816 12.7418 29.4225 -175.088 361.693
lowerback -10.8052 -1.56871 -7.72372
upperback 1.09359 -1.07741 -1.62498
thorax 7.36409 -0.853349 2.43253
lowerneck 1.30355 0.364183 -4.12878
upperneck 8.89423 -0.413916 6.84908
head 2.66199 -0.337682 2.96243
rclavicle 2.70347e-014 3.49861e-014
rhumerus -24.7766 -13.9452 -88.2902
rradius 23.7796
rwrist 7.79896
rhand -14.4075 -53.9914
rfingers 7.12502
rthumb 11.7361 -83.6426
lclavicle 2.70347e-014 3.49861e-014
lhumerus -23.6896 -6.63753 85.3989
lradius 23.8603
lwrist 1.30822
lhand -22.6713 -11.7128
lfingers 7.12502
lthumb 3.76054 18.2338
rfemur -48.2075 15.3527 9.43837
rtibia 25.4956
rfoot -16.0541 -9.36709
rtoes -35.123
lfemur -44.2483 -10.7366 -14.5797
ltibia 28.3621
lfoot -13.2592 9.496
ltoes -33.8958
454
root 10.9259 16.2864 12.7388 29.3606 -175.19 361.772
lowerback -10.865 -1.569 -7.70226
upperback 1.10278 -1.07435 -1.58591
thorax 7.40824 -0.852336 2.4614
lowerneck 1.3156 0.389471 -4.18085
upperneck 8.8964 -0.379181 6.8412
head 2.65864 -0.322645 2.97
rclavicle -1.59028e-014 -4.45278e-014
rhumerus -24.7062 -13.7952 -88.2717
rradius 23.6806
rwrist 7.716
rhand -14.2625 -54.1634
rfingers 7.12502
rthumb 11.876 -83.8066
lclavicle -1.59028e-014 -4.45278e-014
lhumerus -23.7822 -6.70171 85.5203
lradius 24.0504
lwrist 1.35764
lhand -22.5172 -12.0825
lfingers 7.12502
lthumb 3.90934 17.8614
rfemur -47.9766 15.3216 9.65551
rtibia 25.2697
rfoot -15.9484 -9.60613
rtoes -35.0605
lfemur -44.0498 -10.6673 -14.606
ltibia 28.1271
lfoot -13.1556 9.57603
ltoes -34.1969
455
root 10.9086 16.2891 12.7369 29.2561 -175.2 361.74
lowerback -10.8641 -1.63512 -7.75372
upperback 1.18311 -1.15116 -1.54636
thorax 7.50495 -0.896413 2.5171
lowerneck 1.24863 0.400553 -4.24043
upperneck 8.89156 -0.358425 6.84848
head 2.66862 -0.311655 2.98464
rclavicle 3.18055e-015 0
rhumerus -24.4297 -13.9269 -88.1963
rradius 23.4093
rwrist 7.93019
rhand -14.4144 -53.9085
rfingers 7.12502
rthumb 11.7295 -83.5601
lclavicle 3.18055e-015 0
lhumerus -23.6523 -6.65344 85.605
lradius 24.0534
lwrist 1.50572
lhand -22.2954 -12.5473
lfingers 7.12502
lthumb 4.12349 17.3925
rfemur -47.6253 15.2725 9.70493
rtibia 24.883
rfoot -15.824 -9.80772
rtoes -34.4501
lfemur -43.8364 -10.7047 -14.7475
ltibia 27.9325
lfoot -13.0535 9.65718
ltoes -35.0494
